<svg width="1187" height="300" viewBox="0 0 1187 300" fill="none" xmlns="http://www.w3.org/2000/svg">
<g clip-path="url(#clip0_231_19)">
<path d="M300 0H0V300H300V0Z" fill="#D86613"/>
<path d="M90.3752 54.3457V97.9781H121.134L192.847 245.724H242.095V202.35H223L151.201 54.3457H90.3752Z" stroke="white" stroke-width="7.74803" stroke-linecap="round" stroke-linejoin="round"/>
<path d="M112.414 131.784L138.074 184.643L110.215 245.356H58.7729L112.414 131.784Z" stroke="white" stroke-width="7.74803" stroke-linecap="round" stroke-linejoin="round"/>
</g>
<path d="M404.642 239V93.5455H435.395V213.645H497.753V239H404.642ZM548.658 241.06C541.698 241.06 535.496 239.852 530.05 237.438C524.605 234.975 520.297 231.353 517.124 226.571C513.999 221.741 512.437 215.728 512.437 208.531C512.437 202.471 513.549 197.381 515.775 193.261C518 189.142 521.031 185.828 524.866 183.318C528.701 180.809 533.057 178.915 537.934 177.636C542.858 176.358 548.019 175.458 553.417 174.938C559.762 174.275 564.875 173.659 568.758 173.091C572.64 172.475 575.458 171.576 577.21 170.392C578.961 169.208 579.837 167.456 579.837 165.136V164.71C579.837 160.212 578.417 156.732 575.576 154.27C572.782 151.808 568.805 150.577 563.644 150.577C558.199 150.577 553.867 151.784 550.647 154.199C547.427 156.566 545.297 159.549 544.255 163.148L516.272 160.875C517.692 154.246 520.486 148.517 524.653 143.688C528.819 138.811 534.193 135.07 540.775 132.466C547.404 129.814 555.074 128.489 563.786 128.489C569.847 128.489 575.647 129.199 581.187 130.619C586.774 132.04 591.722 134.241 596.031 137.224C600.387 140.207 603.819 144.043 606.329 148.73C608.838 153.37 610.093 158.934 610.093 165.42V239H581.4V223.872H580.548C578.796 227.281 576.452 230.288 573.516 232.892C570.581 235.449 567.053 237.461 562.934 238.929C558.815 240.349 554.056 241.06 548.658 241.06ZM557.323 220.179C561.774 220.179 565.704 219.303 569.113 217.551C572.522 215.752 575.197 213.337 577.138 210.307C579.08 207.277 580.05 203.844 580.05 200.009V188.432C579.103 189.047 577.801 189.616 576.144 190.136C574.534 190.61 572.711 191.06 570.675 191.486C568.639 191.865 566.603 192.22 564.567 192.551C562.531 192.835 560.685 193.096 559.028 193.332C555.477 193.853 552.375 194.682 549.724 195.818C547.072 196.955 545.013 198.493 543.545 200.435C542.077 202.329 541.343 204.696 541.343 207.537C541.343 211.656 542.835 214.805 545.817 216.983C548.848 219.114 552.683 220.179 557.323 220.179ZM633.566 239V129.909H662.401V149.156H663.68C665.952 142.764 669.74 137.722 675.043 134.028C680.346 130.335 686.691 128.489 694.077 128.489C701.558 128.489 707.927 130.359 713.183 134.099C718.438 137.793 721.942 142.812 723.694 149.156H724.83C727.056 142.906 731.08 137.911 736.904 134.17C742.775 130.383 749.712 128.489 757.714 128.489C767.894 128.489 776.156 131.732 782.501 138.219C788.893 144.658 792.089 153.796 792.089 165.634V239H761.904V171.599C761.904 165.539 760.294 160.993 757.075 157.963C753.855 154.933 749.83 153.418 745.001 153.418C739.508 153.418 735.223 155.17 732.146 158.673C729.068 162.13 727.529 166.699 727.529 172.381V239H698.197V170.96C698.197 165.61 696.658 161.348 693.58 158.176C690.55 155.004 686.549 153.418 681.577 153.418C678.216 153.418 675.185 154.27 672.487 155.974C669.835 157.632 667.728 159.975 666.165 163.006C664.603 165.989 663.822 169.492 663.822 173.517V239H633.566ZM816.556 239V93.5455H846.812V148.233H847.735C849.061 145.297 850.978 142.314 853.488 139.284C856.045 136.206 859.359 133.65 863.431 131.614C867.55 129.53 872.664 128.489 878.772 128.489C886.727 128.489 894.066 130.572 900.789 134.739C907.513 138.858 912.887 145.084 916.911 153.418C920.936 161.704 922.948 172.097 922.948 184.597C922.948 196.765 920.983 207.04 917.053 215.42C913.171 223.754 907.868 230.075 901.144 234.384C894.468 238.645 886.987 240.776 878.701 240.776C872.83 240.776 867.835 239.805 863.715 237.864C859.643 235.922 856.305 233.484 853.701 230.548C851.097 227.565 849.108 224.559 847.735 221.528H846.386V239H816.556ZM846.173 184.455C846.173 190.941 847.072 196.599 848.871 201.429C850.671 206.259 853.275 210.023 856.684 212.722C860.093 215.373 864.236 216.699 869.113 216.699C874.037 216.699 878.204 215.349 881.613 212.651C885.022 209.904 887.603 206.116 889.354 201.287C891.154 196.41 892.053 190.799 892.053 184.455C892.053 178.157 891.177 172.617 889.425 167.835C887.674 163.053 885.093 159.312 881.684 156.614C878.275 153.915 874.085 152.565 869.113 152.565C864.189 152.565 860.022 153.867 856.613 156.472C853.251 159.076 850.671 162.769 848.871 167.551C847.072 172.333 846.173 177.968 846.173 184.455ZM983.335 240.776C975.049 240.776 967.545 238.645 960.821 234.384C954.145 230.075 948.842 223.754 944.912 215.42C941.029 207.04 939.088 196.765 939.088 184.597C939.088 172.097 941.1 161.704 945.125 153.418C949.15 145.084 954.5 138.858 961.176 134.739C967.9 130.572 975.262 128.489 983.264 128.489C989.372 128.489 994.462 129.53 998.534 131.614C1002.65 133.65 1005.97 136.206 1008.48 139.284C1011.03 142.314 1012.98 145.297 1014.3 148.233H1015.22V93.5455H1045.41V239H1015.58V221.528H1014.3C1012.88 224.559 1010.87 227.565 1008.26 230.548C1005.71 233.484 1002.37 235.922 998.25 237.864C994.178 239.805 989.206 240.776 983.335 240.776ZM992.923 216.699C997.8 216.699 1001.92 215.373 1005.28 212.722C1008.69 210.023 1011.29 206.259 1013.09 201.429C1014.94 196.599 1015.86 190.941 1015.86 184.455C1015.86 177.968 1014.96 172.333 1013.16 167.551C1011.37 162.769 1008.76 159.076 1005.35 156.472C1001.94 153.867 997.8 152.565 992.923 152.565C987.952 152.565 983.761 153.915 980.352 156.614C976.943 159.312 974.363 163.053 972.611 167.835C970.859 172.617 969.983 178.157 969.983 184.455C969.983 190.799 970.859 196.41 972.611 201.287C974.41 206.116 976.991 209.904 980.352 212.651C983.761 215.349 987.952 216.699 992.923 216.699ZM1101.39 241.06C1094.43 241.06 1088.23 239.852 1082.78 237.438C1077.34 234.975 1073.03 231.353 1069.86 226.571C1066.73 221.741 1065.17 215.728 1065.17 208.531C1065.17 202.471 1066.28 197.381 1068.51 193.261C1070.73 189.142 1073.76 185.828 1077.6 183.318C1081.44 180.809 1085.79 178.915 1090.67 177.636C1095.59 176.358 1100.75 175.458 1106.15 174.938C1112.5 174.275 1117.61 173.659 1121.49 173.091C1125.37 172.475 1128.19 171.576 1129.94 170.392C1131.7 169.208 1132.57 167.456 1132.57 165.136V164.71C1132.57 160.212 1131.15 156.732 1128.31 154.27C1125.52 151.808 1121.54 150.577 1116.38 150.577C1110.93 150.577 1106.6 151.784 1103.38 154.199C1100.16 156.566 1098.03 159.549 1096.99 163.148L1069.01 160.875C1070.43 154.246 1073.22 148.517 1077.39 143.688C1081.55 138.811 1086.93 135.07 1093.51 132.466C1100.14 129.814 1107.81 128.489 1116.52 128.489C1122.58 128.489 1128.38 129.199 1133.92 130.619C1139.51 132.04 1144.46 134.241 1148.76 137.224C1153.12 140.207 1156.55 144.043 1159.06 148.73C1161.57 153.37 1162.83 158.934 1162.83 165.42V239H1134.13V223.872H1133.28C1131.53 227.281 1129.19 230.288 1126.25 232.892C1123.32 235.449 1119.79 237.461 1115.67 238.929C1111.55 240.349 1106.79 241.06 1101.39 241.06ZM1110.06 220.179C1114.51 220.179 1118.44 219.303 1121.85 217.551C1125.26 215.752 1127.93 213.337 1129.87 210.307C1131.81 207.277 1132.78 203.844 1132.78 200.009V188.432C1131.84 189.047 1130.54 189.616 1128.88 190.136C1127.27 190.61 1125.45 191.06 1123.41 191.486C1121.37 191.865 1119.34 192.22 1117.3 192.551C1115.27 192.835 1113.42 193.096 1111.76 193.332C1108.21 193.853 1105.11 194.682 1102.46 195.818C1099.81 196.955 1097.75 198.493 1096.28 200.435C1094.81 202.329 1094.08 204.696 1094.08 207.537C1094.08 211.656 1095.57 214.805 1098.55 216.983C1101.58 219.114 1105.42 220.179 1110.06 220.179Z" fill="white"/>
<defs>
<clipPath id="clip0_231_19">
<rect width="300" height="300" fill="white"/>
</clipPath>
</defs>
</svg>
